Coordinates
version=1
nRows=26
nColumns=24
inDegrees=yes

Units are S.I. units (second, meters, Newtons, ...)
Angles are in degrees.

endheader
time	pelvis_tilt	pelvis_list	pelvis_rotation	pelvis_tx	pelvis_ty	pelvis_tz	hip_flexion_r	hip_adduction_r	hip_rotation_r	knee_angle_r	ankle_angle_r	subtalar_angle_r	mtp_angle_r	hip_flexion_l	hip_adduction_l	hip_rotation_l	knee_angle_l	ankle_angle_l	subtalar_angle_l	mtp_angle_l	lumbar_extension	lumbar_bending	lumbar_rotation
      3.96000000	     -4.64176704	     -0.88020495	     -2.28656934	      0.07146694	      0.96377807	      0.07911136	     10.05057508	     -0.08121553	     -5.65436053	    -14.65050445	      7.78039435	      0.00000000	      0.00000000	     10.84423028	     -7.73065979	     -1.17758216	    -56.25176634	     -3.59655690	      0.00000000	      0.00000000	     -0.09858479	     -0.54379116	      0.77712416
      3.97000000	     -4.60655820	     -0.55246639	     -1.93092021	      0.07067495	      0.96441859	      0.07965874	      9.60191499	     -0.43319397	     -5.88067359	    -14.77077627	      8.08511614	      0.00000000	      0.00000000	     11.88807645	     -7.29128936	     -0.75568444	    -56.70225811	     -2.87676861	      0.00000000	      0.00000000	     -0.13523407	     -1.00237100	      1.28047878
      3.98000000	     -4.61532974	     -0.19941328	     -1.55946665	      0.06986287	      0.96502854	      0.08015472	      9.19357080	     -0.81257184	     -6.16571686	    -14.88980800	      8.36860298	      0.00000000	      0.00000000	     12.94051167	     -6.81917082	     -0.36656271	    -56.91157288	     -2.15201709	      0.00000000	      0.00000000	     -0.12754578	     -1.49913398	      1.75516789
      3.99000000	     -4.64628140	      0.14751302	     -1.17644681	      0.06900479	      0.96563235	      0.08058412	      8.76227390	     -1.18076054	     -6.42670151	    -14.91826499	      8.60547361	      0.00000000	      0.00000000	     13.97918608	     -6.36418619	     -0.04240613	    -56.88304595	     -1.42463145	      0.00000000	      0.00000000	     -0.11507014	     -1.99226650	      2.20032404
      4.00000000	     -4.68866351	      0.47031029	     -0.79617712	      0.06805607	      0.96620219	      0.08103161	      8.28312218	     -1.50651606	     -6.66265520	    -14.80830741	      8.81554950	      0.00000000	      0.00000000	     15.01448483	     -5.96868477	      0.18082425	    -56.67461334	     -0.71595384	      0.00000000	      0.00000000	     -0.12421850	     -2.46903588	      2.62894090
      4.01000000	     -4.77393643	      0.79208899	     -0.39398834	      0.06717914	      0.96672886	      0.08131181	      7.83193667	     -1.84347411	     -6.97374114	    -14.69974384	      9.00914287	      0.00000000	      0.00000000	     16.02218480	     -5.55693073	      0.40412335	    -56.18840170	      0.04583552	      0.00000000	      0.00000000	     -0.07720747	     -2.93997295	      3.01472866
      4.02000000	     -4.89909978	      1.12949792	      0.06308995	      0.06616897	      0.96712043	      0.08146756	      7.42497531	     -2.20357778	     -7.30503176	    -14.60439691	      9.17729559	      0.00000000	      0.00000000	     17.04860005	     -5.13756123	      0.58115099	    -55.48387066	      0.81886384	      0.00000000	      0.00000000	     -0.03641859	     -3.43308194	      3.28012885
      4.03000000	     -5.04936462	      1.40745926	      0.49471951	      0.06521567	      0.96744486	      0.08162065	      6.98849337	     -2.48586033	     -7.60631856	    -14.40555818	      9.36912158	      0.00000000	      0.00000000	     18.03384788	     -4.81030354	      0.67277706	    -54.54694780	      1.52575043	      0.00000000	      0.00000000	      0.03341306	     -3.86437628	      3.55592986
      4.04000000	     -5.13120402	      1.53526430	      0.89047596	      0.06398655	      0.96770948	      0.08186084	      6.54153354	     -2.58732595	     -7.75845792	    -14.31035957	      9.49352402	      0.00000000	      0.00000000	     18.97948465	     -4.70553046	      0.64502868	    -53.50500900	      1.98130081	      0.00000000	      0.00000000	     -0.04423477	     -4.12616155	      3.80912430
      4.05000000	     -5.43986202	      2.08045383	      1.43706055	      0.06302880	      0.96768362	      0.08136083	      6.17925101	     -3.20562186	     -8.33930957	    -13.95148670	      9.65283980	      0.00000000	      0.00000000	     19.98684180	     -3.97636825	      0.81899420	    -52.08945203	      2.97804526	      0.00000000	      0.00000000	      0.16630382	     -4.83803354	      3.89411696
      4.06000000	     -5.66089034	      2.33770159	      1.86628891	      0.06202454	      0.96765914	      0.08120061	      5.72146963	     -3.46031360	     -8.60792269	    -13.56030311	      9.82416535	      0.00000000	      0.00000000	     20.87443920	     -3.68951561	      0.74593247	    -50.50012430	      3.57910176	      0.00000000	      0.00000000	      0.25890231	     -5.23794432	      4.04870247
      4.07000000	     -5.84175745	      2.36296402	      2.24345837	      0.06086178	      0.96751215	      0.08115030	      5.28660974	     -3.44732497	     -8.74516132	    -13.28128303	     10.02796305	      0.00000000	      0.00000000	     21.70666831	     -3.70399522	      0.59250478	    -48.75763488	      3.98100509	      0.00000000	      0.00000000	      0.27623740	     -5.37116684	      4.20726757
      4.08000000	     -6.13250374	      2.57428338	      2.61271471	      0.05987198	      0.96719042	      0.08079598	      4.81887129	     -3.64717305	     -9.00434896	    -12.68261420	     10.17494560	      0.00000000	      0.00000000	     22.51873221	     -3.46005672	      0.46969651	    -46.75725577	      4.49755704	      0.00000000	      0.00000000	      0.43454079	     -5.70699478	      4.38693419
      4.09000000	     -6.36094030	      2.89451799	      3.02270851	      0.05883763	      0.96692228	      0.08029049	      4.32109694	     -3.97884939	     -9.30518177	    -12.19326351	     10.15883410	      0.00000000	      0.00000000	     23.14731468	     -3.10040351	      0.27665529	    -44.44920145	      4.75350135	      0.00000000	      0.00000000	      0.48497110	     -6.16380963	      4.45093671
      4.10000000	     -6.60784451	      2.92241109	      3.33908499	      0.05772187	      0.96640536	      0.08002286	      3.87503433	     -3.96270275	     -9.45385277	    -11.71441793	     10.33247342	      0.00000000	      0.00000000	     23.80260464	     -3.11126173	      0.03819780	    -42.09809771	      4.96151509	      0.00000000	      0.00000000	      0.55419710	     -6.30240684	      4.59715329
      4.11000000	     -6.85784642	      2.83906879	      3.63856079	      0.05656609	      0.96574806	      0.07951758	      3.49816180	     -3.85658565	     -9.60444261	    -11.36436825	     10.49065816	      0.00000000	      0.00000000	     24.40245767	     -3.21711814	     -0.20387428	    -39.59012305	      5.15261141	      0.00000000	      0.00000000	      0.62295016	     -6.27826215	      4.72915201
      4.12000000	     -7.03108725	      3.12565456	      3.88807137	      0.05564298	      0.96534353	      0.07894018	      2.91307898	     -4.14052736	     -9.79347174	    -10.77985443	     10.37561011	      0.00000000	      0.00000000	     24.64932826	     -2.95332481	     -0.63037161	    -36.62159541	      4.96767875	      0.00000000	      0.00000000	      0.60228347	     -6.67626660	      4.89269025
      4.13000000	     -7.32351230	      2.92567860	      4.13539541	      0.05445241	      0.96443975	      0.07840759	      2.59798392	     -3.90312678	     -9.94302109	    -10.41361160	     10.56922411	      0.00000000	      0.00000000	     25.15925764	     -3.18499813	     -0.92367250	    -33.84065754	      5.17668180	      0.00000000	      0.00000000	      0.71315694	     -6.53160368	      5.03063959
      4.14000000	     -7.59277817	      3.03521503	      4.33759715	      0.05353030	      0.96370086	      0.07775164	      2.16839432	     -4.01209822	    -10.01201697	     -9.90905587	     10.39442527	      0.00000000	      0.00000000	     25.38045035	     -3.11154215	     -1.50414601	    -30.62803332	      4.94029616	      0.00000000	      0.00000000	      0.80863488	     -6.72973389	      5.19728110
      4.15000000	     -7.77618494	      3.01263039	      4.49261142	      0.05253225	      0.96291749	      0.07705372	      1.75662058	     -3.98364946	    -10.15710714	     -9.61055863	     10.45377316	      0.00000000	      0.00000000	     25.45255383	     -3.15774982	     -2.05300001	    -27.31651902	      4.90512085	      0.00000000	      0.00000000	      0.79078642	     -6.76414466	      5.38146907
      4.16000000	     -8.02174425	      2.92379698	      4.64058574	      0.05151418	      0.96198381	      0.07626226	      1.43805369	     -3.89740019	    -10.26527991	     -9.33894904	     10.47598276	      0.00000000	      0.00000000	     25.54002069	     -3.23994072	     -2.64387973	    -23.93294034	      4.89029527	      0.00000000	      0.00000000	      0.85165200	     -6.73006403	      5.52574886
      4.17000000	     -8.35143041	      2.56622225	      4.88826196	      0.05040065	      0.96068649	      0.07523251	      1.28286630	     -3.54404970	    -10.47327967	     -9.21817639	     10.64011981	      0.00000000	      0.00000000	     25.83993978	     -3.49386967	     -3.11979624	    -20.80336818	      5.34930204	      0.00000000	      0.00000000	      1.01137134	     -6.39224403	      5.51173482
      4.18000000	     -8.60842091	      2.65536107	      4.84167904	      0.04965916	      0.95977779	      0.07431457	      1.00377524	     -3.68549817	    -10.42093064	     -8.99171640	     10.46447546	      0.00000000	      0.00000000	     25.54504189	     -3.36115979	     -3.95973744	    -16.85391452	      4.70084261	      0.00000000	      0.00000000	      1.10930601	     -6.54127810	      5.79980204
      4.19000000	     -8.74598867	      2.57573777	      4.84864744	      0.04893262	      0.95876552	      0.07311761	      0.67087163	     -3.65775485	    -10.51640384	     -8.93977142	     10.58418428	      0.00000000	      0.00000000	     25.22313522	     -3.31249488	     -4.72502713	    -13.22465155	      4.58205024	      0.00000000	      0.00000000	      1.08082091	     -6.46822369	      5.94586566
      4.20000000	     -8.91733442	      2.44099135	      4.83342466	      0.04830787	      0.95759771	      0.07178862	      0.39710405	     -3.58720374	    -10.54782863	     -8.92917165	     10.64663912	      0.00000000	      0.00000000	     24.91262787	     -3.25949266	     -5.40452139	     -9.73611093	      4.37690480	      0.00000000	      0.00000000	      1.11638230	     -6.33626504	      6.07569918
      4.21000000	     -9.18337833	      2.16782419	      4.82713849	      0.04771006	      0.95615909	      0.07024492	      0.26298002	     -3.39757997	    -10.56477730	     -8.99405239	     10.70249575	      0.00000000	      0.00000000	     24.78439344	     -3.27461190	     -5.86593787	     -6.62277925	      4.25607215	      0.00000000	      0.00000000	      1.28209623	     -6.03905747	      6.12469846
